<svg xmlns="http://www.w3.org/2000/svg" fill="#000000" class="bi bi-cart-check" viewBox="0 0 24 24" id="Cart-Check--Streamline-Bootstrap.svg" height="24" width="24"><desc>Cart Check Streamline Icon: https://streamlinehq.com</desc><path d="M18.04335 8.63505C18.4707 8.20785 18.27525 7.4781 17.69145 7.3218C17.4207 7.2492 17.13165 7.326600000000001 16.9332 7.524900000000001L12.78435 11.6754L10.987350000000001 9.8769C10.56015 9.4497 9.83055 9.645150000000001 9.6741 10.2288C9.6015 10.499699999999999 9.6789 10.78875 9.8772 10.98705L12.229199999999999 13.33905C12.53565 13.64625 13.033050000000001 13.64625 13.33935 13.33905Z" stroke-width="1"></path><path d="M1.0243499999999999 0.24C0.42090000000000005 0.2427 0.0465 0.8976000000000001 0.35055 1.419C0.49035000000000006 1.6588500000000002 0.7467 1.8067499999999999 1.0243499999999999 1.80795H2.7648L3.3936 4.3278L5.74245 16.848300000000002C5.8119 17.21895 6.135300000000001 17.4876 6.5123999999999995 17.48805H8.08035C5.66625 17.48265 4.1517 20.0928 5.35425 22.186049999999998C5.91465 23.1618 6.95505 23.7624 8.08035 23.759999999999998C10.49445 23.754749999999998 11.9976 21.13815 10.7859 19.049999999999997C10.2261 18.0852 9.1959 17.49045 8.08035 17.48805H19.0563C16.6422 17.48265 15.1278 20.0928 16.330199999999998 22.186049999999998C16.89075 23.1618 17.931 23.7624 19.0563 23.759999999999998C21.470399999999998 23.754749999999998 22.97355 21.13815 21.76185 19.049999999999997C21.20205 18.0852 20.17185 17.49045 19.0563 17.48805H20.624399999999998C21.0015 17.4876 21.3249 17.21895 21.3942 16.848300000000002L23.7462 4.30425C23.8365 3.8221499999999997 23.466900000000003 3.3765 22.9764 3.37605H4.7718L4.13685 0.8343C4.0497000000000005 0.48510000000000003 3.7362 0.24014999999999997 3.3763500000000004 0.24ZM7.1631 15.91995L5.10435 4.944H22.03245L19.9737 15.91995ZM9.648299999999999 20.62395C9.648299999999999 21.831 8.34165 22.5855 7.2963000000000005 21.9819C6.8111999999999995 21.70185 6.5123999999999995 21.1842 6.5123999999999995 20.62395C6.5123999999999995 19.4169 7.81905 18.662550000000003 8.8644 19.26615C9.349499999999999 19.5462 9.648299999999999 20.06385 9.648299999999999 20.62395M20.624399999999998 20.62395C20.624399999999998 21.831 19.31775 22.5855 18.272399999999998 21.9819C17.78715 21.70185 17.488349999999997 21.1842 17.488349999999997 20.62395C17.488349999999997 19.4169 18.794999999999998 18.662550000000003 19.84035 19.26615C20.32545 19.5462 20.624399999999998 20.06385 20.624399999999998 20.62395" stroke-width="1"></path></svg>